<?xml version="1.0" encoding="utf-8"?>
<!-- Generator: Adobe Illustrator 22.1.0, SVG Export Plug-In . SVG Version: 6.00 Build 0)  -->
<svg version="1.1" id="Layer_1" xmlns="http://www.w3.org/2000/svg" xmlns:xlink="http://www.w3.org/1999/xlink" x="0px" y="0px"
	 viewBox="0 0 380 260" style="enable-background:new 0 0 380 260;" xml:space="preserve">
<style type="text/css">
	.st0{fill:#FFFFFF;}
</style>
<polygon points="330.4,167.2 283.9,247.7 376.9,247.7 "/>
<g>
	<g>
		<path d="M28.1,103.6c1.8,0,3.2-0.2,4.4-0.6c1.1-0.4,2.1-1,2.8-1.7c0.7-0.7,1.2-1.6,1.4-2.5c0.3-1,0.4-2,0.4-3.2
			c0-2.5-0.9-4.5-2.6-6.2c-1.7-1.7-4.6-3.5-8.8-5.6c-1.8-1-3.6-2.1-5.4-3.4c-1.8-1.3-3.4-2.9-4.9-4.8c-1.4-1.9-2.6-4.2-3.5-6.9
			c-0.9-2.7-1.4-5.9-1.4-9.5c0-3.7,0.5-6.9,1.4-9.7c1-2.8,2.3-5.1,4.1-6.9c1.8-1.8,3.9-3.1,6.4-3.8c2.5-0.8,5.3-1,8.5-0.6
			c3.7,0.4,7,1.2,9.7,2.5c2.7,1.3,5,2.6,6.7,3.9c-1.4,5.3-2.2,7.9-3.6,13.2c-1.5-1.1-3.3-2.1-5.2-3.1c-1.9-0.9-4.2-1.5-6.8-1.7
			c-3-0.2-5.1,0.2-6.4,1.2c-1.3,1-2,2.8-2,5.2c0,1.4,0.2,2.7,0.7,3.7c0.5,1,1.2,1.9,2,2.8c0.9,0.8,1.9,1.6,3,2.3
			c1.1,0.7,2.4,1.4,3.8,2.1c2.9,1.6,5.4,3.1,7.5,4.5c2.1,1.4,3.9,3.1,5.3,4.9c1.4,1.8,2.5,4,3.2,6.5c0.7,2.5,1,5.5,1,9.1
			c0,7-1.8,12.5-5.4,16.6c-3.6,4.1-9.1,6.5-16.4,6.7c-2.5,0.1-4.7-0.1-6.6-0.5c-2-0.4-3.7-0.9-5.2-1.6c-1.5-0.6-2.8-1.3-3.9-2.1
			c-1.1-0.7-2-1.4-2.8-2.1c1.4-5.6,2.1-8.4,3.5-14c1.7,1.4,3.7,2.7,6.1,3.8C21.6,103,24.6,103.6,28.1,103.6z"/>
		<path d="M59.6,41.2c5,0,7.5,0,12.5-0.2c0,23.9,0,47.7,0,71.6c-5,0.8-7.5,1.2-12.5,1.8C59.6,90,59.6,65.6,59.6,41.2z"/>
		<path d="M111.9,49.4c-5.8,0.8-10,3.3-12.6,7.6c-2.6,4.3-3.9,9.9-3.9,16.8c0,3.4,0.3,6.4,1,9c0.6,2.6,1.6,4.8,2.9,6.5
			c1.3,1.7,2.9,2.9,4.8,3.6s4.2,0.7,6.7,0.1c1.4-0.3,2.6-0.6,3.6-0.9c1-0.3,1.9-0.6,2.6-1c0-9.1,0-13.7,0-22.8c5-1,7.5-1.5,12.5-2.5
			c0,10.6,0,21.1,0,31.7c-1.5,1.1-3.9,2.5-7.2,4.2c-3.3,1.7-7.4,3.2-12.2,4.4c-4.2,1-7.9,1.2-11.3,0.4c-3.4-0.8-6.3-2.5-8.7-5.1
			c-2.4-2.6-4.3-6.1-5.6-10.4c-1.3-4.3-2-9.4-2-15.2c0-5.9,0.7-11.2,2.2-15.8c1.4-4.6,3.4-8.6,5.9-12c2.5-3.3,5.5-5.9,8.8-7.8
			c3.4-1.9,7-3,10.8-3.5c2.6-0.3,5-0.4,7.1-0.2c2.1,0.1,3.9,0.4,5.4,0.7c1.5,0.3,2.8,0.7,3.8,1.1c1,0.4,1.7,0.7,2.1,1
			c-1.4,4.8-2.2,7.3-3.6,12.2c-1.7-0.8-3.7-1.4-5.9-1.8C116.9,49.1,114.5,49,111.9,49.4z"/>
		<path d="M178.2,84.6c-3.6-5.4-7.4-10.8-11.6-16.3c-4.2-5.5-8.6-10.7-13.3-15.6c0,13.3,0,26.6,0,39.8c-4.9,1.5-7.4,2.3-12.3,3.7
			c0-20.8,0-41.6,0-62.5c4.1-0.7,6.1-1,10.2-1.7c1.8,1.6,3.7,3.6,5.8,6c2.1,2.4,4.3,4.9,6.5,7.5c2.2,2.6,4.4,5.3,6.6,8.1
			c2.2,2.8,4.2,5.4,6.2,7.9c0-11.4,0-22.7,0-34.1c5-0.9,7.4-1.4,12.4-2.4c0,18.7,0,37.4,0,56.1C184.5,82.5,182.4,83.2,178.2,84.6z"
			/>
		<path d="M238.5,55.6c0,3.8,0,5.7,0,9.6c-12.4,3.8-24.7,7.8-37,11.8c0-18.2,0-36.3,0-54.5c5-1,7.5-1.5,12.5-2.4
			c0,14.2,0,28.4,0,42.6C223.8,59.8,228.7,58.3,238.5,55.6z"/>
		<path d="M246.5,62.8c0-16.2,0-32.3,0-48.5c12.4-2.1,24.9-3.8,37.4-5.2c0,3.3,0,4.9,0,8.2c-10,1.3-15,2.1-25,3.8c0,3.7,0,5.5,0,9.2
			c8.9-1.8,13.3-2.6,22.2-4c0,3.2,0,4.9,0,8.1c-8.9,1.7-13.3,2.6-22.2,4.6c0,4.5,0,6.8,0,11.3c10.7-2.7,16.1-4,26.8-6.3
			c0,3.3,0,4.9,0,8.2C272.6,55.3,259.5,58.9,246.5,62.8z"/>
		<path d="M310.1,40.3c1.8-0.3,3.2-0.6,4.4-1c1.1-0.4,2.1-0.8,2.8-1.2c0.7-0.4,1.2-0.9,1.4-1.5c0.3-0.5,0.4-1.1,0.4-1.7
			c0-1.3-0.9-2.2-2.6-2.9c-1.7-0.7-4.6-1.2-8.8-1.7c-1.8-0.2-3.6-0.5-5.4-0.9c-1.8-0.4-3.4-0.9-4.9-1.7c-1.4-0.7-2.6-1.7-3.5-3
			c-0.9-1.2-1.4-2.8-1.4-4.8c0-2,0.5-3.8,1.4-5.4c1-1.7,2.3-3.1,4.1-4.3c1.8-1.2,3.9-2.2,6.4-2.9c2.5-0.7,5.3-1.1,8.5-1.3
			c3.7-0.1,7,0.1,9.7,0.6c2.7,0.5,5,1.1,6.7,1.8c-1.4,2.7-2.2,4-3.6,6.8c-1.5-0.5-3.3-0.9-5.2-1.3c-1.9-0.3-4.2-0.5-6.8-0.3
			c-3,0.2-5.1,0.6-6.4,1.3c-1.3,0.7-2,1.7-2,3c0,0.7,0.2,1.3,0.7,1.8c0.5,0.5,1.2,0.9,2,1.2c0.9,0.3,1.9,0.6,3,0.8
			c1.1,0.2,2.4,0.4,3.8,0.7c2.9,0.5,5.4,1.1,7.5,1.6c2.1,0.6,3.9,1.3,5.3,2.1c1.4,0.9,2.5,1.9,3.2,3.1c0.7,1.2,1,2.7,1,4.5
			c0,3.5-1.8,6.3-5.4,8.7c-3.6,2.4-9.1,4.2-16.4,5.5c-2.5,0.4-4.7,0.8-6.6,0.9c-2,0.2-3.7,0.3-5.2,0.3c-1.5,0-2.8-0.1-3.9-0.2
			c-1.1-0.1-2-0.3-2.8-0.5c1.4-3.3,2.1-5,3.5-8.3c1.7,0.4,3.7,0.6,6.1,0.7C303.6,41.1,306.6,40.8,310.1,40.3z"/>
		<path d="M356.7,36.2c1.8,0,3.2-0.1,4.4-0.3c1.1-0.2,2.1-0.4,2.8-0.7c0.7-0.3,1.2-0.6,1.4-1c0.3-0.4,0.4-0.9,0.4-1.4
			c0-1.1-0.9-2-2.6-2.8c-1.7-0.8-4.6-1.7-8.8-2.6c-1.8-0.4-3.6-0.9-5.4-1.4c-1.8-0.5-3.4-1.2-4.9-2c-1.4-0.8-2.6-1.8-3.5-2.9
			c-0.9-1.2-1.4-2.6-1.4-4.2c0-1.7,0.5-3.2,1.4-4.5c1-1.3,2.3-2.4,4.1-3.2c1.8-0.8,3.9-1.4,6.4-1.7c2.5-0.3,5.3-0.3,8.5,0.1
			c3.7,0.4,7,1.1,9.7,1.9s5,1.7,6.7,2.5c-1.4,2-2.2,3-3.6,5.1c-1.5-0.7-3.3-1.3-5.2-1.8c-1.9-0.6-4.2-1-6.8-1.2
			c-3-0.3-5.1-0.2-6.4,0.3c-1.3,0.4-2,1.2-2,2.3c0,0.6,0.2,1.2,0.7,1.6c0.5,0.5,1.2,0.9,2,1.3c0.9,0.4,1.9,0.7,3,1.1
			c1.1,0.3,2.4,0.7,3.8,1.1c2.9,0.8,5.4,1.6,7.5,2.4c2.1,0.8,3.9,1.6,5.3,2.6c1.4,0.9,2.5,1.9,3.2,3.1c0.7,1.1,1,2.4,1,3.9
			c0,2.9-1.8,5-5.4,6.5c-3.6,1.5-9.1,2.3-16.4,2.6c-2.5,0.1-4.7,0.1-6.6,0.1c-2-0.1-3.7-0.2-5.2-0.3c-1.5-0.2-2.8-0.3-3.9-0.6
			c-1.1-0.2-2-0.4-2.8-0.6c1.4-2.7,2.1-4.1,3.5-6.7c1.7,0.5,3.7,0.9,6.1,1.3C350.2,36.1,353.2,36.2,356.7,36.2z"/>
		<path d="M28.1,237.6c1.8-0.4,3.2-1,4.4-1.6c1.1-0.7,2.1-1.5,2.8-2.3c0.7-0.9,1.2-1.8,1.4-2.8c0.3-1,0.4-2.1,0.4-3.3
			c0-2.5-0.9-4.3-2.6-5.6c-1.7-1.3-4.6-2.4-8.8-3.6c-1.8-0.6-3.6-1.3-5.4-2.1c-1.8-0.9-3.4-2.1-4.9-3.7c-1.4-1.6-2.6-3.6-3.5-6.1
			c-0.9-2.5-1.4-5.5-1.4-9.2c0-3.7,0.5-7,1.4-10.1c1-3,2.3-5.6,4.1-7.8c1.8-2.2,3.9-3.9,6.4-5.3c2.5-1.3,5.3-2.2,8.5-2.6
			c3.7-0.5,7-0.4,9.7,0.2c2.7,0.6,5,1.4,6.7,2.4c-1.4,5.6-2.2,8.4-3.6,14c-1.5-0.8-3.3-1.4-5.2-1.9c-1.9-0.5-4.2-0.5-6.8-0.1
			c-3,0.5-5.1,1.3-6.4,2.7c-1.3,1.3-2,3.2-2,5.6c0,1.4,0.2,2.6,0.7,3.5c0.5,0.9,1.2,1.7,2,2.3c0.9,0.6,1.9,1.2,3,1.6
			c1.1,0.4,2.4,0.9,3.8,1.3c2.9,0.9,5.4,1.8,7.5,2.8c2.1,0.9,3.9,2.2,5.3,3.7s2.5,3.4,3.2,5.8c0.7,2.3,1,5.3,1,8.9
			c0,7-1.8,12.9-5.4,17.9c-3.6,5-9.1,8.6-16.4,10.5c-2.5,0.6-4.7,1-6.6,1c-2,0-3.7-0.1-5.2-0.4c-1.5-0.3-2.8-0.7-3.9-1.2
			c-1.1-0.5-2-1-2.8-1.5c1.4-6,2.1-8.9,3.5-14.8c1.7,1,3.7,1.8,6.1,2.4C21.6,238.5,24.6,238.4,28.1,237.6z"/>
		<path d="M84.9,232.7c-9,3.9-15.9,3.3-20.6-1.6c-4.7-4.9-7.1-13.7-7.1-25.9c0-6.1,0.7-11.7,2.2-16.8c1.4-5.1,3.4-9.6,5.9-13.5
			c2.5-3.9,5.5-7.1,9-9.7c3.5-2.6,7.2-4.4,11.3-5.6c2.3-0.7,4.5-1.1,6.4-1.3c1.9-0.2,3.6-0.2,5-0.1c1.4,0.1,2.6,0.3,3.6,0.5
			c1,0.3,1.7,0.5,2.1,0.7c-1.4,5.4-2.2,8.1-3.6,13.6c-1.7-0.5-3.7-0.8-6-0.8c-2.3,0-4.8,0.4-7.7,1.3c-1.9,0.6-3.8,1.6-5.6,3
			c-1.8,1.4-3.5,3.2-4.9,5.4c-1.4,2.2-2.5,4.9-3.4,8.1c-0.9,3.2-1.3,6.8-1.3,11c0,3.3,0.3,6.3,0.8,9c0.6,2.7,1.5,4.8,2.7,6.4
			c1.3,1.6,2.9,2.6,4.9,3c2,0.4,4.5,0,7.4-1.1c1.8-0.7,3.4-1.5,4.9-2.4c1.4-0.9,2.7-1.7,3.8-2.5c1.1-0.8,2.1-1.7,3-2.5
			c0.9-0.8,1.6-1.6,2.3-2.3c1.4,4.3,2.1,6.4,3.4,10.7c-1.8,2.1-4.2,4.4-7.4,6.9C92.8,228.7,89.1,230.9,84.9,232.7z"/>
		<path d="M111.4,152.9c5-1.7,7.5-2.6,12.5-4.5c0,21.6,0,43.1,0,64.7c-5,2.5-7.5,3.7-12.5,6.1C111.4,197.1,111.4,175,111.4,152.9z"
			/>
		<path d="M136.7,206.6c0-21,0-42,0-63c12.6-4.9,25-10,37.4-15.2c0,4.4,0,6.6,0,11c-10,4.4-15,6.6-25,10.9c0,4.8,0,7.2,0,12
			c8.9-4,13.3-6.1,22.2-10.2c0,4.3,0,6.5,0,10.8c-8.9,4.4-13.3,6.5-22.2,10.8c0,5.9,0,8.9,0,14.8c9-4.6,17.9-9.2,26.8-13.9
			c0,4.4,0,6.6,0,10.9C162.9,192.6,149.9,199.7,136.7,206.6z"/>
		<path d="M222.4,159.7c-3.6-4-7.4-7.8-11.6-11.7c-4.2-3.8-8.6-7.4-13.3-10.6c0,12,0,24,0,36c-4.9,2.7-7.4,4.1-12.3,6.8
			c0-18.9,0-37.7,0-56.6c4.1-1.7,6.1-2.6,10.2-4.3c1.8,1,3.7,2.3,5.8,3.9c2.1,1.6,4.3,3.3,6.5,5.1c2.2,1.8,4.4,3.7,6.6,5.6
			c2.2,1.9,4.2,3.8,6.2,5.5c0-10.2,0-20.4,0-30.7c5-2.1,7.4-3.1,12.4-5.1c0,16.8,0,33.5,0,50.3C228.7,156.3,226.6,157.4,222.4,159.7
			z"/>
		<path d="M270.9,135.2c-9,4.4-15.9,5.9-20.6,4c-4.7-2-7.1-7.1-7.1-15.2c0-4,0.7-8,2.2-11.8s3.4-7.3,5.9-10.4c2.5-3.1,5.5-5.9,9-8.3
			c3.5-2.4,7.2-4.3,11.3-5.7c2.3-0.8,4.5-1.4,6.4-1.8c1.9-0.4,3.6-0.6,5-0.8c1.4-0.1,2.6-0.2,3.6-0.1c1,0.1,1.7,0.1,2.1,0.2
			c-1.4,3.6-2.2,5.4-3.6,9.1c-1.7-0.1-3.7,0-6,0.4c-2.3,0.3-4.8,1-7.7,2.1c-1.9,0.7-3.8,1.7-5.6,3c-1.8,1.3-3.5,2.8-4.9,4.5
			c-1.4,1.8-2.5,3.8-3.4,6c-0.9,2.3-1.3,4.8-1.3,7.5c0,2.2,0.3,4.1,0.8,5.7c0.6,1.6,1.5,2.8,2.7,3.6c1.3,0.8,2.9,1,4.9,0.9
			c2-0.2,4.5-1,7.4-2.3c1.8-0.8,3.4-1.7,4.9-2.5c1.4-0.8,2.7-1.6,3.8-2.3c1.1-0.7,2.1-1.4,3-2.1c0.9-0.7,1.6-1.3,2.3-1.8
			c1.4,2.5,2.1,3.8,3.4,6.3c-1.8,1.6-4.2,3.5-7.4,5.7C278.9,131,275.1,133.1,270.9,135.2z"/>
		<path d="M297.5,121.9c0-13.9,0-27.8,0-41.8c12.3-3.8,24.8-7.1,37.4-9.7c0,2.8,0,4.2,0,7c-10,2.3-15,3.6-25,6.7c0,3.1,0,4.7,0,7.9
			c8.9-2.9,13.3-4.2,22.2-6.6c0,2.7,0,4.1,0,6.9c-8.9,2.6-13.3,4-22.2,7.1c0,3.9,0,5.8,0,9.7c8.8-3.4,17.8-6.5,26.8-9.3
			c0,2.8,0,4.1,0,6.9C323.4,111.2,310.4,116.4,297.5,121.9z"/>
	</g>
</g>
<g>
	<g>
		<path class="st0" d="M28.1,97.6c1.8,0,3.2-0.2,4.4-0.6c1.1-0.4,2.1-1,2.8-1.7c0.7-0.7,1.2-1.6,1.4-2.5c0.3-1,0.4-2,0.4-3.2
			c0-2.5-0.9-4.5-2.6-6.2c-1.7-1.7-4.6-3.5-8.8-5.6c-1.8-1-3.6-2.1-5.4-3.4c-1.8-1.3-3.4-2.9-4.9-4.8c-1.4-1.9-2.6-4.2-3.5-6.9
			c-0.9-2.7-1.4-5.9-1.4-9.5c0-3.7,0.5-6.9,1.4-9.7c1-2.8,2.3-5.1,4.1-6.9c1.8-1.8,3.9-3.1,6.4-3.8c2.5-0.8,5.3-1,8.5-0.6
			c3.7,0.4,7,1.2,9.7,2.5c2.7,1.3,5,2.6,6.7,3.9c-1.4,5.3-2.2,7.9-3.6,13.2c-1.5-1.1-3.3-2.1-5.2-3.1c-1.9-0.9-4.2-1.5-6.8-1.7
			c-3-0.2-5.1,0.2-6.4,1.2c-1.3,1-2,2.8-2,5.2c0,1.4,0.2,2.7,0.7,3.7c0.5,1,1.2,1.9,2,2.8c0.9,0.8,1.9,1.6,3,2.3
			c1.1,0.7,2.4,1.4,3.8,2.1c2.9,1.6,5.4,3.1,7.5,4.5c2.1,1.4,3.9,3.1,5.3,4.9c1.4,1.8,2.5,4,3.2,6.5c0.7,2.5,1,5.5,1,9.1
			c0,7-1.8,12.5-5.4,16.6c-3.6,4.1-9.1,6.5-16.4,6.7c-2.5,0.1-4.7-0.1-6.6-0.5c-2-0.4-3.7-0.9-5.2-1.6c-1.5-0.6-2.8-1.3-3.9-2.1
			c-1.1-0.7-2-1.4-2.8-2.1c1.4-5.6,2.1-8.4,3.5-14c1.7,1.4,3.7,2.7,6.1,3.8C21.6,97,24.6,97.6,28.1,97.6z"/>
		<path class="st0" d="M59.6,35.2c5,0,7.5,0,12.5-0.2c0,23.9,0,47.7,0,71.6c-5,0.8-7.5,1.2-12.5,1.8C59.6,84,59.6,59.6,59.6,35.2z"
			/>
		<path class="st0" d="M111.9,43.4c-5.8,0.8-10,3.3-12.6,7.6c-2.6,4.3-3.9,9.9-3.9,16.8c0,3.4,0.3,6.4,1,9c0.6,2.6,1.6,4.8,2.9,6.5
			c1.3,1.7,2.9,2.9,4.8,3.6s4.2,0.7,6.7,0.1c1.4-0.3,2.6-0.6,3.6-0.9c1-0.3,1.9-0.6,2.6-1c0-9.1,0-13.7,0-22.8c5-1,7.5-1.5,12.5-2.5
			c0,10.6,0,21.1,0,31.7c-1.5,1.1-3.9,2.5-7.2,4.2c-3.3,1.7-7.4,3.2-12.2,4.4c-4.2,1-7.9,1.2-11.3,0.4c-3.4-0.8-6.3-2.5-8.7-5.1
			c-2.4-2.6-4.3-6.1-5.6-10.4c-1.3-4.3-2-9.4-2-15.2c0-5.9,0.7-11.2,2.2-15.8c1.4-4.6,3.4-8.6,5.9-12c2.5-3.3,5.5-5.9,8.8-7.8
			c3.4-1.9,7-3,10.8-3.5c2.6-0.3,5-0.4,7.1-0.2c2.1,0.1,3.9,0.4,5.4,0.7c1.5,0.3,2.8,0.7,3.8,1.1c1,0.4,1.7,0.7,2.1,1
			c-1.4,4.8-2.2,7.3-3.6,12.2c-1.7-0.8-3.7-1.4-5.9-1.8C116.9,43.1,114.5,43,111.9,43.4z"/>
		<path class="st0" d="M178.2,78.6c-3.6-5.4-7.4-10.8-11.6-16.3c-4.2-5.5-8.6-10.7-13.3-15.6c0,13.3,0,26.6,0,39.8
			c-4.9,1.5-7.4,2.3-12.3,3.7c0-20.8,0-41.6,0-62.5c4.1-0.7,6.1-1,10.2-1.7c1.8,1.6,3.7,3.6,5.8,6c2.1,2.4,4.3,4.9,6.5,7.5
			c2.2,2.6,4.4,5.3,6.6,8.1c2.2,2.8,4.2,5.4,6.2,7.9c0-11.4,0-22.7,0-34.1c5-0.9,7.4-1.4,12.4-2.4c0,18.7,0,37.4,0,56.1
			C184.5,76.5,182.4,77.2,178.2,78.6z"/>
		<path class="st0" d="M238.5,49.6c0,3.8,0,5.7,0,9.6c-12.4,3.8-24.7,7.8-37,11.8c0-18.2,0-36.3,0-54.5c5-1,7.5-1.5,12.5-2.4
			c0,14.2,0,28.4,0,42.6C223.8,53.8,228.7,52.3,238.5,49.6z"/>
		<path class="st0" d="M246.5,56.8c0-16.2,0-32.3,0-48.5C259,6.2,271.4,4.4,284,3.1c0,3.3,0,4.9,0,8.2c-10,1.3-15,2.1-25,3.8
			c0,3.7,0,5.5,0,9.2c8.9-1.8,13.3-2.6,22.2-4c0,3.2,0,4.9,0,8.1c-8.9,1.7-13.3,2.6-22.2,4.6c0,4.5,0,6.8,0,11.3
			c10.7-2.7,16.1-4,26.8-6.3c0,3.3,0,4.9,0,8.2C272.6,49.3,259.5,52.9,246.5,56.8z"/>
		<path class="st0" d="M310.1,34.3c1.8-0.3,3.2-0.6,4.4-1c1.1-0.4,2.1-0.8,2.8-1.2c0.7-0.4,1.2-0.9,1.4-1.5c0.3-0.5,0.4-1.1,0.4-1.7
			c0-1.3-0.9-2.2-2.6-2.9c-1.7-0.7-4.6-1.2-8.8-1.7c-1.8-0.2-3.6-0.5-5.4-0.9c-1.8-0.4-3.4-0.9-4.9-1.7c-1.4-0.7-2.6-1.7-3.5-3
			c-0.9-1.2-1.4-2.8-1.4-4.8c0-2,0.5-3.8,1.4-5.4c1-1.7,2.3-3.1,4.1-4.3c1.8-1.2,3.9-2.2,6.4-2.9c2.5-0.7,5.3-1.1,8.5-1.3
			c3.7-0.1,7,0.1,9.7,0.6c2.7,0.5,5,1.1,6.7,1.8c-1.4,2.7-2.2,4-3.6,6.8c-1.5-0.5-3.3-0.9-5.2-1.3c-1.9-0.3-4.2-0.5-6.8-0.3
			c-3,0.2-5.1,0.6-6.4,1.3c-1.3,0.7-2,1.7-2,3c0,0.7,0.2,1.3,0.7,1.8c0.5,0.5,1.2,0.9,2,1.2c0.9,0.3,1.9,0.6,3,0.8
			c1.1,0.2,2.4,0.4,3.8,0.7c2.9,0.5,5.4,1.1,7.5,1.6c2.1,0.6,3.9,1.3,5.3,2.1c1.4,0.9,2.5,1.9,3.2,3.1c0.7,1.2,1,2.7,1,4.5
			c0,3.5-1.8,6.3-5.4,8.7c-3.6,2.4-9.1,4.2-16.4,5.5c-2.5,0.4-4.7,0.8-6.6,0.9c-2,0.2-3.7,0.3-5.2,0.3c-1.5,0-2.8-0.1-3.9-0.2
			c-1.1-0.1-2-0.3-2.8-0.5c1.4-3.3,2.1-5,3.5-8.3c1.7,0.4,3.7,0.6,6.1,0.7C303.6,35.1,306.6,34.8,310.1,34.3z"/>
		<path class="st0" d="M356.7,30.2c1.8,0,3.2-0.1,4.4-0.3c1.1-0.2,2.1-0.4,2.8-0.7c0.7-0.3,1.2-0.6,1.4-1c0.3-0.4,0.4-0.9,0.4-1.4
			c0-1.1-0.9-2-2.6-2.8c-1.7-0.8-4.6-1.7-8.8-2.6c-1.8-0.4-3.6-0.9-5.4-1.4c-1.8-0.5-3.4-1.2-4.9-2c-1.4-0.8-2.6-1.8-3.5-2.9
			c-0.9-1.2-1.4-2.6-1.4-4.2c0-1.7,0.5-3.2,1.4-4.5c1-1.3,2.3-2.4,4.1-3.2c1.8-0.8,3.9-1.4,6.4-1.7c2.5-0.3,5.3-0.3,8.5,0.1
			c3.7,0.4,7,1.1,9.7,1.9s5,1.7,6.7,2.5c-1.4,2-2.2,3-3.6,5.1c-1.5-0.7-3.3-1.3-5.2-1.8c-1.9-0.6-4.2-1-6.8-1.2
			c-3-0.3-5.1-0.2-6.4,0.3c-1.3,0.4-2,1.2-2,2.3c0,0.6,0.2,1.2,0.7,1.6c0.5,0.5,1.2,0.9,2,1.3c0.9,0.4,1.9,0.7,3,1.1
			c1.1,0.3,2.4,0.7,3.8,1.1c2.9,0.8,5.4,1.6,7.5,2.4c2.1,0.8,3.9,1.6,5.3,2.6c1.4,0.9,2.5,1.9,3.2,3.1c0.7,1.1,1,2.4,1,3.9
			c0,2.9-1.8,5-5.4,6.5c-3.6,1.5-9.1,2.3-16.4,2.6c-2.5,0.1-4.7,0.1-6.6,0.1c-2-0.1-3.7-0.2-5.2-0.3c-1.5-0.2-2.8-0.3-3.9-0.6
			c-1.1-0.2-2-0.4-2.8-0.6c1.4-2.7,2.1-4.1,3.5-6.7c1.7,0.5,3.7,0.9,6.1,1.3C350.2,30.1,353.2,30.2,356.7,30.2z"/>
		<path class="st0" d="M28.1,231.6c1.8-0.4,3.2-1,4.4-1.6c1.1-0.7,2.1-1.5,2.8-2.3c0.7-0.9,1.2-1.8,1.4-2.8c0.3-1,0.4-2.1,0.4-3.3
			c0-2.5-0.9-4.3-2.6-5.6c-1.7-1.3-4.6-2.4-8.8-3.6c-1.8-0.6-3.6-1.3-5.4-2.1c-1.8-0.9-3.4-2.1-4.9-3.7c-1.4-1.6-2.6-3.6-3.5-6.1
			c-0.9-2.5-1.4-5.5-1.4-9.2c0-3.7,0.5-7,1.4-10.1c1-3,2.3-5.6,4.1-7.8c1.8-2.2,3.9-3.9,6.4-5.3c2.5-1.3,5.3-2.2,8.5-2.6
			c3.7-0.5,7-0.4,9.7,0.2c2.7,0.6,5,1.4,6.7,2.4c-1.4,5.6-2.2,8.4-3.6,14c-1.5-0.8-3.3-1.4-5.2-1.9c-1.9-0.5-4.2-0.5-6.8-0.1
			c-3,0.5-5.1,1.3-6.4,2.7c-1.3,1.3-2,3.2-2,5.6c0,1.4,0.2,2.6,0.7,3.5c0.5,0.9,1.2,1.7,2,2.3c0.9,0.6,1.9,1.2,3,1.6
			c1.1,0.4,2.4,0.9,3.8,1.3c2.9,0.9,5.4,1.8,7.5,2.8c2.1,0.9,3.9,2.2,5.3,3.7s2.5,3.4,3.2,5.8c0.7,2.3,1,5.3,1,8.9
			c0,7-1.8,12.9-5.4,17.9c-3.6,5-9.1,8.6-16.4,10.5c-2.5,0.6-4.7,1-6.6,1c-2,0-3.7-0.1-5.2-0.4c-1.5-0.3-2.8-0.7-3.9-1.2
			c-1.1-0.5-2-1-2.8-1.5c1.4-6,2.1-8.9,3.5-14.8c1.7,1,3.7,1.8,6.1,2.4C21.6,232.5,24.6,232.4,28.1,231.6z"/>
		<path class="st0" d="M84.9,226.7c-9,3.9-15.9,3.3-20.6-1.6c-4.7-4.9-7.1-13.7-7.1-25.9c0-6.1,0.7-11.7,2.2-16.8
			c1.4-5.1,3.4-9.6,5.9-13.5c2.5-3.9,5.5-7.1,9-9.7c3.5-2.6,7.2-4.4,11.3-5.6c2.3-0.7,4.5-1.1,6.4-1.3c1.9-0.2,3.6-0.2,5-0.1
			c1.4,0.1,2.6,0.3,3.6,0.5c1,0.3,1.7,0.5,2.1,0.7c-1.4,5.4-2.2,8.1-3.6,13.6c-1.7-0.5-3.7-0.8-6-0.8c-2.3,0-4.8,0.4-7.7,1.3
			c-1.9,0.6-3.8,1.6-5.6,3c-1.8,1.4-3.5,3.2-4.9,5.4c-1.4,2.2-2.5,4.9-3.4,8.1c-0.9,3.2-1.3,6.8-1.3,11c0,3.3,0.3,6.3,0.8,9
			c0.6,2.7,1.5,4.8,2.7,6.4c1.3,1.6,2.9,2.6,4.9,3c2,0.4,4.5,0,7.4-1.1c1.8-0.7,3.4-1.5,4.9-2.4c1.4-0.9,2.7-1.7,3.8-2.5
			c1.1-0.8,2.1-1.7,3-2.5c0.9-0.8,1.6-1.6,2.3-2.3c1.4,4.3,2.1,6.4,3.4,10.7c-1.8,2.1-4.2,4.4-7.4,6.9
			C92.8,222.7,89.1,224.9,84.9,226.7z"/>
		<path class="st0" d="M111.4,146.9c5-1.7,7.5-2.6,12.5-4.5c0,21.6,0,43.1,0,64.7c-5,2.5-7.5,3.7-12.5,6.1
			C111.4,191.1,111.4,169,111.4,146.9z"/>
		<path class="st0" d="M136.7,200.6c0-21,0-42,0-63c12.6-4.9,25-10,37.4-15.2c0,4.4,0,6.6,0,11c-10,4.4-15,6.6-25,10.9
			c0,4.8,0,7.2,0,12c8.9-4,13.3-6.1,22.2-10.2c0,4.3,0,6.5,0,10.8c-8.9,4.4-13.3,6.5-22.2,10.8c0,5.9,0,8.9,0,14.8
			c9-4.6,17.9-9.2,26.8-13.9c0,4.4,0,6.6,0,10.9C162.9,186.6,149.9,193.7,136.7,200.6z"/>
		<path class="st0" d="M222.4,153.7c-3.6-4-7.4-7.8-11.6-11.7c-4.2-3.8-8.6-7.4-13.3-10.6c0,12,0,24,0,36c-4.9,2.7-7.4,4.1-12.3,6.8
			c0-18.9,0-37.7,0-56.6c4.1-1.7,6.1-2.6,10.2-4.3c1.8,1,3.7,2.3,5.8,3.9c2.1,1.6,4.3,3.3,6.5,5.1c2.2,1.8,4.4,3.7,6.6,5.6
			c2.2,1.9,4.2,3.8,6.2,5.5c0-10.2,0-20.4,0-30.7c5-2.1,7.4-3.1,12.4-5.1c0,16.8,0,33.5,0,50.3C228.7,150.3,226.6,151.4,222.4,153.7
			z"/>
		<path class="st0" d="M270.9,129.2c-9,4.4-15.9,5.9-20.6,4c-4.7-2-7.1-7.1-7.1-15.2c0-4,0.7-8,2.2-11.8c1.4-3.8,3.4-7.3,5.9-10.4
			c2.5-3.1,5.5-5.9,9-8.3c3.5-2.4,7.2-4.3,11.3-5.7c2.3-0.8,4.5-1.4,6.4-1.8c1.9-0.4,3.6-0.6,5-0.8c1.4-0.1,2.6-0.2,3.6-0.1
			c1,0.1,1.7,0.1,2.1,0.2c-1.4,3.6-2.2,5.4-3.6,9.1c-1.7-0.1-3.7,0-6,0.4c-2.3,0.3-4.8,1-7.7,2.1c-1.9,0.7-3.8,1.7-5.6,3
			c-1.8,1.3-3.5,2.8-4.9,4.5c-1.4,1.8-2.5,3.8-3.4,6c-0.9,2.3-1.3,4.8-1.3,7.5c0,2.2,0.3,4.1,0.8,5.7c0.6,1.6,1.5,2.8,2.7,3.6
			c1.3,0.8,2.9,1,4.9,0.9c2-0.2,4.5-1,7.4-2.3c1.8-0.8,3.4-1.7,4.9-2.5c1.4-0.8,2.7-1.6,3.8-2.3c1.1-0.7,2.1-1.4,3-2.1
			c0.9-0.7,1.6-1.3,2.3-1.8c1.4,2.5,2.1,3.8,3.4,6.3c-1.8,1.6-4.2,3.5-7.4,5.7C278.9,125,275.1,127.1,270.9,129.2z"/>
		<path class="st0" d="M297.5,115.9c0-13.9,0-27.8,0-41.8c12.3-3.8,24.8-7.1,37.4-9.7c0,2.8,0,4.2,0,7c-10,2.3-15,3.6-25,6.7
			c0,3.1,0,4.7,0,7.9c8.9-2.9,13.3-4.2,22.2-6.6c0,2.7,0,4.1,0,6.9c-8.9,2.6-13.3,4-22.2,7.1c0,3.9,0,5.8,0,9.7
			c8.8-3.4,17.8-6.5,26.8-9.3c0,2.8,0,4.1,0,6.9C323.4,105.2,310.4,110.4,297.5,115.9z"/>
	</g>
</g>
<polygon class="st0" points="323.4,161.2 276.9,241.7 369.9,241.7 "/>
</svg>
